<?xml version="1.0" encoding="UTF-8"?>
<svg version="1.1" xmlns="http://www.w3.org/2000/svg" width="350" height="350">
<path d="M0 0 C115.5 0 231 0 350 0 C350 115.5 350 231 350 350 C234.5 350 119 350 0 350 C0 234.5 0 119 0 0 Z " fill="#0148AB" transform="translate(0,0)"/>
<path d="M0 0 C115.5 0 231 0 350 0 C350 115.5 350 231 350 350 C234.5 350 119 350 0 350 C0 234.5 0 119 0 0 Z M74 83 C73.18917969 83.74636719 72.37835938 84.49273437 71.54296875 85.26171875 C51.46950852 104.38682653 38.05741999 130.86725079 33 158 C32.82299561 158.89372314 32.64599121 159.78744629 32.46362305 160.70825195 C31.01276139 168.54923993 30.65096934 176.16078657 30.6875 184.125 C30.69241455 185.39819092 30.6973291 186.67138184 30.70239258 187.9831543 C31.1559389 224.65062971 46.67347278 258.74779561 72 285 C73.07507813 286.16982422 73.07507813 286.16982422 74.171875 287.36328125 C94.87535896 309.27317123 126.86234499 324.50714297 157.01953125 326.10714722 C159.10593219 326.16303521 161.19023241 326.19071441 163.27734375 326.203125 C164.04695938 326.20882507 164.81657501 326.21452515 165.60951233 326.22039795 C167.2322556 326.22978632 168.85501741 326.23635718 170.4777832 326.24023438 C172.9002637 326.24985216 175.32186159 326.28089754 177.74414062 326.3125 C191.86189613 326.40977261 205.53441609 324.82690999 218.875 319.9375 C219.69887207 319.64077393 220.52274414 319.34404785 221.37158203 319.03833008 C241.39173958 311.54648615 258.88569566 300.02652055 274 285 C274.47034668 284.53368164 274.94069336 284.06736328 275.42529297 283.58691406 C293.47845519 265.42781337 306.78526925 241.04249232 312 216 C312.13680176 215.37061523 312.27360352 214.74123047 312.41455078 214.09277344 C317.14378428 191.83818425 316.457821 167.85253172 310 146 C309.75894531 145.12085938 309.51789063 144.24171875 309.26953125 143.3359375 C304.61385741 127.81702471 296.91640496 112.78231632 287 100 C286.29359375 99.07316406 285.5871875 98.14632812 284.859375 97.19140625 C264.30198529 71.12493189 235.72087328 52.50327356 203 46 C202.05125 45.80535156 201.1025 45.61070313 200.125 45.41015625 C153.51622823 36.33998333 108.23217395 50.64205136 74 83 Z " fill="#FEFEFE" transform="translate(0,0)"/>
<path d="M0 0 C11.92769221 9.77607336 20.75382216 21.48218515 25.58349609 36.29785156 C25.88126953 37.12671875 26.17904297 37.95558594 26.48583984 38.80957031 C30.51484484 51.82492748 30.54502125 68.56526292 25.58349609 81.29785156 C25.23158203 82.338125 24.87966797 83.37839844 24.51708984 84.45019531 C17.27720911 104.92734973 3.16747762 119.04873026 -16.0949707 128.56201172 C-34.96990005 137.33601678 -55.58099681 137.54534277 -75.22900391 131.23535156 C-94.67939403 123.95741565 -109.99150419 109.5509285 -119.22900391 91.04785156 C-127.17979021 71.88866512 -128.53218878 50.67964394 -120.61914062 31.35009766 C-116.21858174 20.94266383 -110.53218064 13.09869601 -102.41650391 5.29785156 C-101.66369141 4.54890625 -100.91087891 3.79996094 -100.13525391 3.02832031 C-90.72400294 -5.88849899 -79.68723818 -10.89450241 -67.41650391 -14.70214844 C-66.67271484 -14.94964844 -65.92892578 -15.19714844 -65.16259766 -15.45214844 C-43.08174976 -21.67454002 -17.43114206 -13.65484225 0 0 Z " fill="#F9FBFD" transform="translate(223.41650390625,125.7021484375)"/>
<path d="M0 0 C0 3.63 0 7.26 0 11 C-2.00900391 11.29003906 -2.00900391 11.29003906 -4.05859375 11.5859375 C-5.85158795 11.84878482 -7.64455527 12.11181545 -9.4375 12.375 C-10.31599609 12.50132813 -11.19449219 12.62765625 -12.09960938 12.7578125 C-33.07495711 15.85380479 -52.24870325 23.56522955 -68 38 C-69.38832031 39.24910156 -69.38832031 39.24910156 -70.8046875 40.5234375 C-88.78297153 57.50569472 -99.33685778 81.7269211 -100.203125 106.41015625 C-100.65460064 133.16437417 -91.93479263 157.05180232 -74 177 C-72.98873047 178.15242188 -72.98873047 178.15242188 -71.95703125 179.328125 C-54.7468486 197.79758931 -30.01480596 207.06057483 -5.24609375 208.4453125 C24.92271818 209.50343222 50.61160837 199.18625475 73 179 C74.04170354 177.69898828 75.05975324 176.37612274 76 175 C79.99500618 176.3697164 82.80009492 178.25722422 86 181 C79.2442673 196.10888004 58.09426157 207.2047393 43.38427734 213.03710938 C31.03098603 217.62934494 19.26063731 221 6 221 C6 230.57 6 240.14 6 250 C2.04 250 -1.92 250 -6 250 C-6 240.1 -6 230.2 -6 220 C-10.29 220 -14.58 220 -19 220 C-38.42789762 216.93644318 -57.22524803 206.59767759 -72 194 C-73.10601562 193.11248047 -73.10601562 193.11248047 -74.234375 192.20703125 C-89.82982894 179.23847115 -99.89841302 161.08466304 -106 142 C-106.21172852 141.36320313 -106.42345703 140.72640625 -106.64160156 140.0703125 C-114.53516274 115.5514854 -111.39011445 85.26525221 -99.84057617 62.30810547 C-86.17420279 36.4337225 -63.93446813 14.72108086 -35.64453125 5.51953125 C-31.45763651 4.23397249 -27.23787444 3.10478193 -23 2 C-22.14664063 1.7525 -21.29328125 1.505 -20.4140625 1.25 C-13.71467101 -0.54314568 -6.88480908 -0.17628245 0 0 Z " fill="#F9FAFD" transform="translate(175,75)"/>
<path d="M0 0 C0 18.48 0 36.96 0 56 C-11.88 56 -23.76 56 -36 56 C-36 37.19 -36 18.38 -36 -1 C-24.44202307 -3.88949423 -11.25013093 -4.50005237 0 0 Z " fill="#054AAC" transform="translate(193,124)"/>
<path d="M0 0 C11.88 0 23.76 0 36 0 C36 18.48 36 36.96 36 56 C26.98432359 58.2539191 26.98432359 58.2539191 22.6171875 58.265625 C21.67746094 58.26820313 20.73773438 58.27078125 19.76953125 58.2734375 C18.81433594 58.26570313 17.85914063 58.25796875 16.875 58.25 C15.43060547 58.26160156 15.43060547 58.26160156 13.95703125 58.2734375 C13.01988281 58.27085937 12.08273438 58.26828125 11.1171875 58.265625 C10.27784668 58.26336914 9.43850586 58.26111328 8.57373047 58.25878906 C6 58 6 58 0 56 C0 37.52 0 19.04 0 0 Z " fill="#0449AC" transform="translate(157,191)"/>
<path d="M0 0 C11.55 0 23.1 0 35 0 C35 16.83 35 33.66 35 51 C23.34285547 45.17142773 23.34285547 45.17142773 18.8125 40.375 C18.308396 39.85284912 17.80429199 39.33069824 17.28491211 38.79272461 C6.73387602 27.5634924 1.52795362 15.27953622 0 0 Z " fill="#0349AC" transform="translate(110,191)"/>
<path d="M0 0 C11.55 0 23.1 0 35 0 C32.92565726 18.66908469 25.17769356 32.81453351 11 45 C2.41698842 51 2.41698842 51 0 51 C0 34.17 0 17.34 0 0 Z " fill="#0249AB" transform="translate(205,191)"/>
<path d="M0 0 C0 16.5 0 33 0 50 C-11.55 50 -23.1 50 -35 50 C-33.47631632 34.7631632 -27.29140967 20.69277917 -16 10 C-3.63492063 0 -3.63492063 0 0 0 Z " fill="#0248AB" transform="translate(145,129)"/>
<path d="M0 0 C15.03970399 6.01588159 24.51957083 17.83072913 31.20166016 32.12207031 C33.65898277 37.90241451 35 43.7374108 35 50 C23.45 50 11.9 50 0 50 C0 33.5 0 17 0 0 Z " fill="#0148AB" transform="translate(205,129)"/>
</svg>
